<svg height="512pt" viewBox="-40 0 512 512" width="512pt" xmlns="http://www.w3.org/2000/svg"><path d="m277 0h-242v512h362v-392l-85-30zm0 0" fill="#f3eee9"/><path d="m277 0h-61v512h181v-392l-85-30zm0 0" fill="#e9dfda"/><path d="m277 120h120l-120-120zm0 0" fill="#dad0cb"/><path d="m0 195h432v243h-432zm0 0" fill="#27d8f6"/><path d="m216 195h216v243h-216zm0 0" fill="#00c0f1"/><path d="m96 392h-45v-151h45c24.8125 0 45 20.1875 45 45v61c0 24.8125-20.1875 45-45 45zm-15-30h15c8.269531 0 15-6.730469 15-15v-61c0-8.269531-6.730469-15-15-15h-15zm0 0" fill="#fff3f3"/><path d="m216 392c-24.8125 0-45-20.1875-45-45v-61c0-24.8125 20.1875-45 45-45s45 20.1875 45 45v61c0 24.8125-20.1875 45-45 45zm0-121c-8.269531 0-15 6.730469-15 15v61c0 8.269531 6.730469 15 15 15s15-6.730469 15-15v-61c0-8.269531-6.730469-15-15-15zm0 0" fill="#fff3f3"/><g fill="#e9dfda"><path d="m216 241v30c8.269531 0 15 6.730469 15 15v61c0 8.269531-6.730469 15-15 15v30c24.8125 0 45-20.1875 45-45v-61c0-24.8125-20.1875-45-45-45zm0 0"/><path d="m366 392h-15c-33.085938 0-60-26.914062-60-60v-31c0-33.085938 26.914062-60 60-60h15v30h-15c-16.542969 0-30 13.457031-30 30v31c0 16.542969 13.457031 30 30 30h15zm0 0"/></g></svg>